<svg width="24" height="24" viewBox="0 0 24 24" fill="none" xmlns="http://www.w3.org/2000/svg">
<path d="M12 2C9.79 2 8 3.79 8 6V8H6C4.9 8 4 8.9 4 10V14C4 15.1 4.9 16 6 16H8V18C8 20.21 9.79 22 12 22C14.21 22 16 20.21 16 18V16H18C19.1 16 20 15.1 20 14V10C20 8.9 19.1 8 18 8H16V6C16 3.79 14.21 2 12 2ZM12 20C10.9 20 10 19.1 10 18V16H14V18C14 19.1 13.1 20 12 20ZM18 14H6V10H18V14Z" fill="currentColor"/>
<circle cx="9" cy="12" r="1" fill="currentColor"/>
<circle cx="15" cy="12" r="1" fill="currentColor"/>
</svg>